<svg width="25" height="24" viewBox="0 0 25 24" fill="none" xmlns="http://www.w3.org/2000/svg">
<path d="M12.8093 5.56H22.8093" stroke="#4EB7F2" stroke-width="1.5" stroke-miterlimit="10" stroke-linecap="round" stroke-linejoin="round"/>
<path d="M15.0293 2H20.5893C22.3693 2 22.8093 2.44 22.8093 4.2V8.31C22.8093 10.07 22.3693 10.51 20.5893 10.51H15.0293C13.2493 10.51 12.8093 10.07 12.8093 8.31V4.2C12.8093 2.44 13.2493 2 15.0293 2Z" stroke="#4EB7F2" stroke-width="1.5" stroke-linecap="round" stroke-linejoin="round"/>
<path d="M2.80927 17.06H12.8093" stroke="#4EB7F2" stroke-width="1.5" stroke-miterlimit="10" stroke-linecap="round" stroke-linejoin="round"/>
<path d="M5.02927 13.5H10.5893C12.3693 13.5 12.8093 13.94 12.8093 15.7V19.81C12.8093 21.57 12.3693 22.01 10.5893 22.01H5.02927C3.24927 22.01 2.80927 21.57 2.80927 19.81V15.7C2.80927 13.94 3.24927 13.5 5.02927 13.5Z" stroke="#4EB7F2" stroke-width="1.5" stroke-linecap="round" stroke-linejoin="round"/>
<path d="M22.8093 15C22.8093 18.87 19.6793 22 15.8093 22L16.8593 20.25" stroke="#4EB7F2" stroke-width="1.5" stroke-linecap="round" stroke-linejoin="round"/>
<path d="M2.80927 9C2.80927 5.13 5.93927 2 9.80927 2L8.75928 3.75" stroke="#4EB7F2" stroke-width="1.5" stroke-linecap="round" stroke-linejoin="round"/>
</svg>
